<svg xmlns="http://www.w3.org/2000/svg" viewBox="0 0 137.27 24.62"><defs><style>.cls-1{fill:#4caf50;}.cls-2{fill:#1e88e5;}.cls-3{fill:#fcbb45;}.cls-4{fill:#333;}.cls-5{fill:#555;}</style></defs><title>logo_gl</title><g id="Warstwa_2" data-name="Warstwa 2"><g id="Warstwa_1-2" data-name="Warstwa 1"><path class="cls-1" d="M11.39,11,6.31,2S6.2,1.77,6,1.73A.33.33,0,0,0,5.61,2L4,7.44a2.59,2.59,0,0,1-1.29,4.48L1.22,17.23a.42.42,0,0,0,.14.48c.25.17.57-.09.57-.09l9-4.9a1.28,1.28,0,0,0,.59-.71A1.55,1.55,0,0,0,11.39,11Z"/><circle class="cls-1" cx="2.3" cy="9.36" r="2.3"/><path class="cls-2" d="M22.15,19,13.5,13.54a1.28,1.28,0,0,0-.9-.17,1.56,1.56,0,0,0-.8.57L6.4,22.77a.54.54,0,0,0-.1.41.33.33,0,0,0,.41.22l5.39-1.26A2.6,2.6,0,0,1,16.93,21l5.23-1.22a.42.42,0,0,0,.35-.36C22.53,19.14,22.15,19,22.15,19Z"/><circle class="cls-2" cx="14.68" cy="22.32" r="2.3"/><path class="cls-3" d="M24.78,11.89,20.83,7.56a2.6,2.6,0,0,1-3.3-3.62L14.09.17A.42.42,0,0,0,13.61,0c-.27.13-.22.53-.22.53l-.53,10.21a1.27,1.27,0,0,0,.29.87,1.56,1.56,0,0,0,.89.42l10.34.41a.54.54,0,0,0,.41-.12A.33.33,0,0,0,24.78,11.89Z"/><circle class="cls-3" cx="19.83" cy="5.16" r="2.3"/><path class="cls-4" d="M38.55,17.46v-2H35.48V13.14H42v6.21a18.2,18.2,0,0,1-2.83.63,22.11,22.11,0,0,1-3.13.21q-3.91,0-5.87-1.57a5.61,5.61,0,0,1-2-4.67,5.88,5.88,0,0,1,1.94-4.73,8.29,8.29,0,0,1,5.53-1.65,8.59,8.59,0,0,1,4.61,1,3.67,3.67,0,0,1,1.7,3H38.26a1.62,1.62,0,0,0-.74-1.33,3.34,3.34,0,0,0-1.92-.49,3.67,3.67,0,0,0-2.79,1,4.07,4.07,0,0,0-1,2.92,4.07,4.07,0,0,0,1,3,4.22,4.22,0,0,0,3.09,1,9.1,9.1,0,0,0,1.26-.09A12.55,12.55,0,0,0,38.55,17.46Z"/><path class="cls-4" d="M49.1,20.18A6.62,6.62,0,0,1,44.9,19a4,4,0,0,1-1.45-3.34,4,4,0,0,1,1.49-3.32,6.88,6.88,0,0,1,4.3-1.16,6.89,6.89,0,0,1,4.31,1.16A4,4,0,0,1,55,15.72a3.91,3.91,0,0,1-1.49,3.34A7.33,7.33,0,0,1,49.1,20.18Zm.17-1.91A2.18,2.18,0,0,0,51,17.56a2.81,2.81,0,0,0,.63-1.94,2.88,2.88,0,0,0-.64-2,2.19,2.19,0,0,0-1.73-.72,2.21,2.21,0,0,0-1.75.7,2.89,2.89,0,0,0-.62,2,2.88,2.88,0,0,0,.61,2A2.25,2.25,0,0,0,49.27,18.27Z"/><path class="cls-4" d="M56.74,20V7.72H60V20Z"/><path class="cls-4" d="M73.12,7.72V18c0,.29,0,.6,0,.92s.05.66.1,1H70c0-.22-.06-.44-.07-.66s0-.44,0-.67v-.27a4.41,4.41,0,0,1-1.62,1.35,4.74,4.74,0,0,1-2.1.46A4.21,4.21,0,0,1,63,19a4.65,4.65,0,0,1-1.15-3.34A4.4,4.4,0,0,1,63,12.4a4.31,4.31,0,0,1,3.21-1.19,5.4,5.4,0,0,1,2,.36,5,5,0,0,1,1.66,1.08V7.72Zm-5.63,5.21a2.16,2.16,0,0,0-1.69.69,2.65,2.65,0,0,0-.62,1.84,3,3,0,0,0,.61,2,2.17,2.17,0,0,0,1.75.72,2.21,2.21,0,0,0,1.73-.69,2.78,2.78,0,0,0,.62-1.93,2.86,2.86,0,0,0-.61-2A2.3,2.3,0,0,0,67.49,12.93Z"/><path class="cls-4" d="M85.35,17.25a2.65,2.65,0,0,1-1.41,2.19,7.43,7.43,0,0,1-3.68.75,6.27,6.27,0,0,1-4-1.13,3.89,3.89,0,0,1-1.4-3.22,4.21,4.21,0,0,1,1.46-3.43,6.27,6.27,0,0,1,4.13-1.22,5.24,5.24,0,0,1,3.8,1.24,5,5,0,0,1,1.27,3.71v.29h-7.4a2,2,0,0,0,.64,1.45,2.33,2.33,0,0,0,1.6.53,2.23,2.23,0,0,0,1.25-.31,1.15,1.15,0,0,0,.54-.85ZM78.13,14.7H82.3a1.63,1.63,0,0,0-.57-1.26A2.24,2.24,0,0,0,80.25,13a2.29,2.29,0,0,0-1.49.45A1.74,1.74,0,0,0,78.13,14.7Z"/><path class="cls-4" d="M87.17,20V13.45q0-.66,0-1.13c0-.31,0-.61-.08-.88h3.28c0,.22,0,.44.06.67s0,.46,0,.69a5,5,0,0,1,1.66-1.19,5.11,5.11,0,0,1,2-.38,3.79,3.79,0,0,1,2.73.93,3.41,3.41,0,0,1,1,2.59V20H94.53V14.91a1.74,1.74,0,0,0-.46-1.31,1.86,1.86,0,0,0-1.35-.44,2.26,2.26,0,0,0-1.73.61,2.66,2.66,0,0,0-.57,1.87V20Z"/><path class="cls-5" d="M100.76,20V7.72h1.72V18.47h7V20Z"/><path class="cls-5" d="M113.09,7.72V9.49h-1.63V7.72ZM111.47,20V11.44h1.63V20Z"/><path class="cls-5" d="M116.5,20V14.2c0-.36,0-.77,0-1.24s-.06-1-.1-1.52H118l.1,1.48a3.84,3.84,0,0,1,1.52-1.27,5.29,5.29,0,0,1,2.19-.4,4,4,0,0,1,2.86.92,3.69,3.69,0,0,1,.94,2.76v5H124v-4.8a3,3,0,0,0-.62-2.11,2.53,2.53,0,0,0-1.94-.67,3.46,3.46,0,0,0-2.37.78,2.65,2.65,0,0,0-.89,2.09V20Z"/><path class="cls-5" d="M137.1,17.35a3,3,0,0,1-1.35,2.12,5.81,5.81,0,0,1-3.11.7A4.75,4.75,0,0,1,129.25,19a4.19,4.19,0,0,1-1.23-3.2,4.38,4.38,0,0,1,1.31-3.34,5,5,0,0,1,3.54-1.24,4.42,4.42,0,0,1,3.26,1.14,4.39,4.39,0,0,1,1.14,3.26s0,.12,0,.22,0,.17,0,.22h-7.57a3,3,0,0,0,.83,2.2,3.72,3.72,0,0,0,4,.33,1.78,1.78,0,0,0,.81-1.25ZM129.75,15h5.84v-.12a2.39,2.39,0,0,0-.78-1.89,3.13,3.13,0,0,0-2.14-.68,2.93,2.93,0,0,0-2.06.73A2.75,2.75,0,0,0,129.75,15Z"/></g></g></svg>